<svg width="189" height="24" fill="none" xmlns="http://www.w3.org/2000/svg"><path d="M85.92.08h-15.6c-3.246 0-5.902 2.655-5.902 5.901v16.232c0 .59.464 1.054 1.054 1.054h1.265c.59 0 1.054-.464 1.054-1.054V5.98a2.537 2.537 0 0 1 2.53-2.53h15.598a2.537 2.537 0 0 1 2.53 2.53v16.232c0 .59.463 1.054 1.054 1.054h1.264c.59 0 1.055-.464 1.055-1.054V5.98A5.893 5.893 0 0 0 85.918.08ZM187.947 13.148h-1.265c-.59 0-1.054.464-1.054 1.054v3.162a2.537 2.537 0 0 1-2.529 2.53H167.5a2.538 2.538 0 0 1-2.53-2.53v-3.162c0-.59-.463-1.054-1.054-1.054h-1.264c-.591 0-1.054.464-1.054 1.054v3.162c0 3.247 2.656 5.903 5.902 5.903h15.599c3.246 0 5.902-2.656 5.902-5.903v-3.162c0-.59-.464-1.054-1.054-1.054ZM183.099.08H167.5c-3.246 0-5.902 2.655-5.902 5.901v3.162c0 .59.463 1.054 1.054 1.054h1.264c.591 0 1.054-.463 1.054-1.054V5.981a2.538 2.538 0 0 1 2.53-2.53h15.599a2.537 2.537 0 0 1 2.529 2.53v3.162c0 .59.464 1.054 1.054 1.054h1.265c.59 0 1.054-.463 1.054-1.054V5.981A5.893 5.893 0 0 0 183.099.08ZM154.221 13.148h-1.265c-.59 0-1.054.464-1.054 1.054v3.162a2.537 2.537 0 0 1-2.53 2.53h-15.599a2.537 2.537 0 0 1-2.529-2.53v-3.162c0-.59-.464-1.054-1.054-1.054h-1.265c-.59 0-1.054.464-1.054 1.054v3.162c0 3.247 2.656 5.903 5.902 5.903h15.599c3.247 0 5.903-2.656 5.903-5.903v-3.162c0-.59-.464-1.054-1.054-1.054ZM149.372.08h-15.599c-3.246 0-5.902 2.655-5.902 5.901v3.162c0 .59.464 1.054 1.054 1.054h1.265c.59 0 1.054-.463 1.054-1.054V5.981a2.537 2.537 0 0 1 2.529-2.53h15.599a2.537 2.537 0 0 1 2.53 2.53v3.162c0 .59.464 1.054 1.054 1.054h1.265c.59 0 1.054-.463 1.054-1.054V5.981A5.893 5.893 0 0 0 149.372.08ZM56.916 13.148H55.65c-.59 0-1.054.464-1.054 1.054v3.162a2.537 2.537 0 0 1-2.53 2.53H36.47a2.537 2.537 0 0 1-2.53-2.53v-3.162c0-.59-.464-1.054-1.054-1.054H31.62c-.59 0-1.054.464-1.054 1.054v3.162c0 3.247 2.656 5.903 5.903 5.903h15.599c3.246 0 5.902-2.656 5.902-5.903v-3.162c0-.59-.464-1.054-1.054-1.054ZM52.068.08h-15.6c-3.246 0-5.902 2.655-5.902 5.901v3.162c0 .59.464 1.054 1.054 1.054h1.265c.59 0 1.054-.463 1.054-1.054V5.981a2.537 2.537 0 0 1 2.53-2.53h15.599a2.537 2.537 0 0 1 2.53 2.53v3.162c0 .59.463 1.054 1.053 1.054h1.265c.59 0 1.054-.463 1.054-1.054V5.981A5.893 5.893 0 0 0 52.068.08ZM25.296 19.894H5.902a2.537 2.537 0 0 1-2.53-2.53V5.981a2.537 2.537 0 0 1 2.53-2.53h9.908c.59 0 1.054-.463 1.054-1.053V1.133C16.864.543 16.4.08 15.81.08H5.902C2.656.08 0 2.735 0 5.981v11.383c0 3.247 2.656 5.903 5.902 5.903h19.394c.59 0 1.053-.464 1.053-1.054v-1.265c0-.59-.463-1.054-1.053-1.054ZM116.486.08H97.093c-.59 0-1.054.463-1.054 1.053v1.265c0 .59.464 1.054 1.054 1.054h19.393a2.537 2.537 0 0 1 2.53 2.53V8.51a2.537 2.537 0 0 1-2.53 2.53h-10.371c-.843 0-1.602.632-1.686 1.56a1.73 1.73 0 0 0 .759 1.56l13.659 9.57c.464.337 1.139.21 1.476-.254l.717-1.053c.337-.464.21-1.139-.253-1.476l-9.318-6.535h5.017c3.247 0 5.903-2.656 5.903-5.902V5.98A5.893 5.893 0 0 0 116.486.08Z" fill="#14005C"/></svg>