<svg xmlns="http://www.w3.org/2000/svg" width="189" height="24"><g fill="#FFF" fill-rule="nonzero"><path d="M85.92 0h-15.6c-3.246 0-5.902 2.656-5.902 5.902v16.232c0 .59.464 1.054 1.054 1.054h1.265c.59 0 1.054-.464 1.054-1.054V5.902a2.537 2.537 0 0 1 2.53-2.53h15.598a2.537 2.537 0 0 1 2.53 2.53v16.232c0 .59.463 1.054 1.054 1.054h1.264c.59 0 1.055-.464 1.055-1.054V5.902A5.893 5.893 0 0 0 85.918 0ZM187.947 13.07h-1.265c-.59 0-1.054.463-1.054 1.053v3.162a2.537 2.537 0 0 1-2.529 2.53H167.5a2.538 2.538 0 0 1-2.53-2.53v-3.162c0-.59-.463-1.054-1.054-1.054h-1.264c-.591 0-1.054.464-1.054 1.054v3.162c0 3.246 2.656 5.903 5.902 5.903h15.599c3.246 0 5.902-2.657 5.902-5.903v-3.162c0-.59-.464-1.054-1.054-1.054ZM183.099 0H167.5c-3.246 0-5.902 2.656-5.902 5.902v3.162c0 .59.463 1.054 1.054 1.054h1.264c.591 0 1.054-.464 1.054-1.054V5.902a2.538 2.538 0 0 1 2.53-2.53h15.599a2.537 2.537 0 0 1 2.529 2.53v3.162c0 .59.464 1.054 1.054 1.054h1.265c.59 0 1.054-.464 1.054-1.054V5.902A5.893 5.893 0 0 0 183.099 0ZM154.221 13.07h-1.265c-.59 0-1.054.463-1.054 1.053v3.162a2.537 2.537 0 0 1-2.53 2.53h-15.599a2.537 2.537 0 0 1-2.529-2.53v-3.162c0-.59-.464-1.054-1.054-1.054h-1.265c-.59 0-1.054.464-1.054 1.054v3.162c0 3.246 2.656 5.903 5.902 5.903h15.599c3.247 0 5.903-2.657 5.903-5.903v-3.162c0-.59-.464-1.054-1.054-1.054ZM149.372 0h-15.599c-3.246 0-5.902 2.656-5.902 5.902v3.162c0 .59.464 1.054 1.054 1.054h1.265c.59 0 1.054-.464 1.054-1.054V5.902a2.537 2.537 0 0 1 2.529-2.53h15.599a2.537 2.537 0 0 1 2.53 2.53v3.162c0 .59.464 1.054 1.054 1.054h1.265c.59 0 1.054-.464 1.054-1.054V5.902A5.893 5.893 0 0 0 149.372 0ZM56.916 13.07H55.65c-.59 0-1.054.463-1.054 1.053v3.162a2.537 2.537 0 0 1-2.53 2.53H36.47a2.537 2.537 0 0 1-2.53-2.53v-3.162c0-.59-.464-1.054-1.054-1.054H31.62c-.59 0-1.054.464-1.054 1.054v3.162c0 3.246 2.656 5.903 5.903 5.903h15.599c3.246 0 5.902-2.657 5.902-5.903v-3.162c0-.59-.464-1.054-1.054-1.054ZM52.068 0h-15.6c-3.246 0-5.902 2.656-5.902 5.902v3.162c0 .59.464 1.054 1.054 1.054h1.265c.59 0 1.054-.464 1.054-1.054V5.902a2.537 2.537 0 0 1 2.53-2.53h15.599a2.537 2.537 0 0 1 2.53 2.53v3.162c0 .59.463 1.054 1.053 1.054h1.265c.59 0 1.054-.464 1.054-1.054V5.902A5.893 5.893 0 0 0 52.068 0ZM25.296 19.815H5.902a2.537 2.537 0 0 1-2.53-2.53V5.902a2.537 2.537 0 0 1 2.53-2.53h9.908c.59 0 1.054-.463 1.054-1.053V1.054C16.864.464 16.4 0 15.81 0H5.902C2.656 0 0 2.656 0 5.902v11.383c0 3.247 2.656 5.903 5.902 5.903h19.394c.59 0 1.053-.464 1.053-1.054v-1.265c0-.59-.463-1.054-1.053-1.054ZM116.486 0H97.093c-.59 0-1.054.464-1.054 1.054v1.265c0 .59.464 1.054 1.054 1.054h19.393a2.537 2.537 0 0 1 2.53 2.53v2.529a2.537 2.537 0 0 1-2.53 2.53h-10.371c-.843 0-1.602.632-1.686 1.56a1.73 1.73 0 0 0 .759 1.56l13.659 9.57c.464.337 1.139.21 1.476-.254l.717-1.054c.337-.463.21-1.138-.253-1.475l-9.318-6.535h5.017c3.247 0 5.903-2.656 5.903-5.902v-2.53A5.893 5.893 0 0 0 116.486 0Z"/></g></svg>